<?xml version="1.0" encoding="utf-8"?>
<!-- Generator: Adobe Illustrator 28.1.0, SVG Export Plug-In . SVG Version: 6.00 Build 0)  -->
<svg version="1.1" id="Layer_1" xmlns="http://www.w3.org/2000/svg" xmlns:xlink="http://www.w3.org/1999/xlink" x="0px" y="0px"
	 viewBox="0 0 1024 1024" style="enable-background:new 0 0 1024 1024;" xml:space="preserve">
<g>
	<g>
		<path d="M216.8,826.5l-56.4-317.4c-1.2-6.9-1.3-14.3-0.2-21.2l50.2-322.5c3.8-24.4-6.9-48.2-20.7-46.1L47.9,141
			c-14.3,2.2-22.6,30.6-15.7,53.7l84.4,280.9c3.1,10.5,3.3,23.1,0.3,33.8L38.8,793.9c-6.2,22.7,1.8,49.7,15.6,52.4L196,873.8
			C210.2,876.6,221.3,851.5,216.8,826.5z"/>
		<path d="M482.1,477.1l96.4-148.6c10.6-16.3,9-47-3.1-59.4L430.7,120.5c-3.4-3.5-7.4-5.1-11.3-4.5L261,140.2
			c-14.3,2.2-22.6,30.6-15.7,53.7l84.4,280.9c3.1,10.5,3.3,23.1,0.3,33.8l-78.2,284.5c-6.2,22.7,1.8,49.7,15.6,52.4L378.6,867
			c38,7.3,77.1-4.8,104.2-32.4l100.3-101.8c12.6-12.8,13.8-45.3,2.1-61L483.1,534.1C472.8,520.2,472.3,492.2,482.1,477.1z
			 M385.5,409.3c6.2-40,38.3-32.4,38.8,9.1l1.9,157c0.5,41.8-31.5,51.8-38.6,12.1l-12.2-68.8c-2.4-13.6-2.6-28.3-0.4-42.1
			L385.5,409.3z"/>
		<path d="M936.1,646.2l-12.5-108.5c-0.8-7.1-0.5-14.4,1-21.1l68.5-311c5.2-23.5-4.1-49.3-17.9-49.9l-141.3-5.9
			c-14.6-0.6-24.5,27-18.4,51.3L868,412c1.2,4.6,1.8,9.7,1.8,14.8l0,0c0.2,36.8-26.2,50.6-36.6,19.3L822,412.6
			c-0.8-2.4-1.4-5-1.9-7.6l-47.3-264.1c-2.9-16-11.3-26.2-20.5-24.8l-154.9,24.2c-14.3,2.2-22.6,30.7-15.6,53.7l84.4,281
			c3.1,10.5,3.3,23.1,0.3,33.8l-78.2,284.5c-6.2,22.7,1.8,49.7,15.6,52.4l141.8,27.5c14.2,2.8,25.3-22.1,20.9-47.1l-47.9-275.7
			c-0.7-3.9-1-7.9-0.9-12l1.3-91.9c0.5-34.1,24.1-48.2,35.4-21.2L838.7,626c3.7,8.9,5,20.4,3.5,31.2l-24.5,174.6
			c-2.9,20.5,4.4,41.2,15.8,44.8L938.9,910c13.8,4.4,25.6-18.2,22.7-43.3L936.1,646.2L936.1,646.2L936.1,646.2z"/>
	</g>
</g>
</svg>
