<?xml version="1.0" encoding="utf-8"?>
<!-- Generator: Adobe Illustrator 27.4.0, SVG Export Plug-In . SVG Version: 6.00 Build 0)  -->
<svg version="1.1" id="Layer_1" xmlns="http://www.w3.org/2000/svg" xmlns:xlink="http://www.w3.org/1999/xlink" x="0px" y="0px"
	 viewBox="0 0 1024 1024" style="enable-background:new 0 0 1024 1024;" xml:space="preserve">
<style type="text/css">
	.st0{fill:#FFFFFF;}
</style>
<g>
	<g>
		<path class="st0" d="M472.6,338l-58.9,13.4c-15,3.4-24.1,19.6-20,35.3L427,513.7c1.8,6.8,1.1,14.1-1.9,20.4L369,652.8
			c-8.4,17.7,2.4,38.8,20.9,40.9l62.8,7.1c19.1,2.2,34-17.4,28-36.9l-10.6-34.7c-4.1-13.3,1.6-27.8,13.3-34l68.6-36.8
			c20.5-11,43.6,9,37.6,32.7l-19,74.5c-4.9,19.2,9.9,37.7,28.4,35.6l64.9-7.3c18.5-2.1,29.3-23.2,20.9-40.9l-56.2-118.8
			c-3-6.3-3.6-13.6-1.9-20.4l33.4-126.9c4.1-15.7-5-31.9-20-35.3L581.3,338C545.5,329.8,508.4,329.8,472.6,338z M503.8,425
			c10.2-19.3,36.2-19.2,46.3,0l18.1,34.4c11.8,22.5-8.4,48.7-31.4,40.8l-45.6-15.8c-8.2-2.8-11.9-13-7.7-21L503.8,425z"/>
		<path class="st0" d="M938.5,341.8c-5.3-13.5-20.8-19.8-34-13.8l-68.8,31.5c-3.5,1.6-7.3,2.4-11.1,2.3l-93.8-2.2
			c-18.3-0.4-30.9,18.1-23.8,35l50,119.1c2.4,5.8,2.6,12.3,0.5,18.2L710,664.7c-6.4,18,7.1,36.8,26.2,36.5l83-1.5
			c6.8-0.1,13.1-3.6,16.8-9.4l0,0c4.5-7,12.7-10.5,20.9-9l93.1,17.2c14.2,2.6,27.7-7.2,29.6-21.6l19.1-148.2
			c2.1-16,0.1-32.4-5.8-47.4L938.5,341.8z M781.9,547.6c-3-6.4-3.2-13.7-0.5-20.2l30-74c5.3-13.2,20.5-19.4,33.6-13.6l109.3,48.3
			c17.5,7.7,20.4,31.4,5.2,43.1l-121.8,93.4c-7.4,5.7-18.1,3-22-5.4L781.9,547.6z"/>
		<path class="st0" d="M164.6,562.2l35.2,21.7c13.9,8.6,32,0,34.1-16.2l12.8-96.8c2.1-16.1,20.1-24.7,34-16.3l0,0
			c13.5,8.1,30.9,0.3,33.8-15.2l11.7-63.3c4.7-25.4-18.3-47.2-43.4-41.1L212.4,352c-2.2,0.5-4.5,0.7-6.7,0.6L50,342.8
			c-15.7-1-27.6,14-22.9,29.1l24.9,80.9c4.8,15.6,24.1,21.1,36.3,10.3l72-63c7.4-6.5,18.1-7.4,26.5-2.3l13.8,8.3
			c13.5,8.2,14.6,27.4,2.1,37.1l-24.8,19.1l0-0.2L35.7,571.7c-6.6,5.1-6.1,15.2,1,19.6h0c4.2,2.6,6.4,7.5,5.5,12.3l-10.2,55.4
			c-4.7,25.4,18.3,47.2,43.4,41.1l86.4-21c2.2-0.5,4.5-0.7,6.7-0.6l156.4,9.9c15.7,1,27.6-14,22.9-29.1L323,578.5
			c-4.8-15.6-24.1-21.1-36.3-10.3l-81.5,71.3c-7.4,6.5-18.1,7.4-26.5,2.3l-10.3-6.2c-7.7-4.6-11.8-13.4-10.7-22.2L164.6,562.2
			L164.6,562.2z"/>
	</g>
</g>
</svg>
